<svg width="17" height="16" viewBox="0 0 17 16" fill="none" xmlns="http://www.w3.org/2000/svg">
<path d="M16.5385 6.0972C16.5035 5.98994 16.4108 5.91172 16.2991 5.89542L10.9391 5.11646L8.54204 0.259572C8.49226 0.158238 8.38915 0.0942383 8.27655 0.0942383C8.16396 0.0942383 8.06055 0.158238 8.01107 0.259572L5.61374 5.11676L0.253739 5.89572C0.142035 5.91202 0.0495909 5.98994 0.0143317 6.0975C-0.020335 6.20446 0.00840577 6.32239 0.0892947 6.40091L3.96811 10.1816L3.05226 15.5203C3.03329 15.6314 3.07892 15.7437 3.16989 15.8101C3.26144 15.8771 3.38263 15.8856 3.48189 15.8326L8.27655 13.3123L13.0706 15.8326C13.1139 15.8554 13.1616 15.8667 13.2087 15.8667C13.27 15.8667 13.3311 15.8477 13.3829 15.8101C13.4742 15.7437 13.5198 15.6314 13.5006 15.5203L12.585 10.1819L16.4638 6.40091C16.5444 6.32179 16.5734 6.20416 16.5385 6.0972Z" fill="#EF9546"/>
</svg>
